<mxfile host="app.diagrams.net" modified="2023-09-12T00:31:04.928Z" agent="Mozilla/5.0 (Windows NT 10.0; Win64; x64) AppleWebKit/537.36 (KHTML, like Gecko) Chrome/114.0.0.0 YaBrowser/23.7.5.635 (beta) Yowser/2.5 Safari/537.36" etag="4K33Es6S4z2T_OlmQRZI" version="21.7.4" type="device">
  <diagram name="Страница — 1" id="HmTrVDBh0SqJhUGpX6ty">
    <mxGraphModel dx="835" dy="512" grid="1" gridSize="10" guides="1" tooltips="1" connect="1" arrows="1" fold="1" page="1" pageScale="1" pageWidth="827" pageHeight="1169" math="0" shadow="0">
      <root>
        <mxCell id="0" />
        <mxCell id="1" parent="0" />
        <mxCell id="mHaAWTCKIyT-Cmkm_INJ-5" style="edgeStyle=orthogonalEdgeStyle;rounded=0;orthogonalLoop=1;jettySize=auto;html=1;exitX=0.5;exitY=1;exitDx=0;exitDy=0;entryX=0.5;entryY=0;entryDx=0;entryDy=0;" edge="1" parent="1" source="RczpkamzrUJYiYEXYmhn-1" target="RczpkamzrUJYiYEXYmhn-2">
          <mxGeometry relative="1" as="geometry" />
        </mxCell>
        <mxCell id="RczpkamzrUJYiYEXYmhn-1" value="Start" style="ellipse;whiteSpace=wrap;html=1;" parent="1" vertex="1">
          <mxGeometry x="320" y="10" width="160" height="50" as="geometry" />
        </mxCell>
        <mxCell id="RczpkamzrUJYiYEXYmhn-2" value="string [] array" style="shape=parallelogram;perimeter=parallelogramPerimeter;whiteSpace=wrap;html=1;fixedSize=1;" parent="1" vertex="1">
          <mxGeometry x="320" y="90" width="160" height="60" as="geometry" />
        </mxCell>
        <mxCell id="mHaAWTCKIyT-Cmkm_INJ-7" style="edgeStyle=orthogonalEdgeStyle;rounded=0;orthogonalLoop=1;jettySize=auto;html=1;exitX=0.5;exitY=1;exitDx=0;exitDy=0;entryX=0.5;entryY=0;entryDx=0;entryDy=0;" edge="1" parent="1" source="mHaAWTCKIyT-Cmkm_INJ-1" target="mHaAWTCKIyT-Cmkm_INJ-3">
          <mxGeometry relative="1" as="geometry" />
        </mxCell>
        <mxCell id="mHaAWTCKIyT-Cmkm_INJ-9" value="ДА" style="edgeLabel;html=1;align=center;verticalAlign=middle;resizable=0;points=[];" vertex="1" connectable="0" parent="mHaAWTCKIyT-Cmkm_INJ-7">
          <mxGeometry x="-0.3222" y="1" relative="1" as="geometry">
            <mxPoint as="offset" />
          </mxGeometry>
        </mxCell>
        <mxCell id="mHaAWTCKIyT-Cmkm_INJ-8" style="edgeStyle=orthogonalEdgeStyle;rounded=0;orthogonalLoop=1;jettySize=auto;html=1;exitX=0;exitY=0.5;exitDx=0;exitDy=0;entryX=0;entryY=0.5;entryDx=0;entryDy=0;" edge="1" parent="1" source="mHaAWTCKIyT-Cmkm_INJ-1" target="mHaAWTCKIyT-Cmkm_INJ-2">
          <mxGeometry relative="1" as="geometry">
            <Array as="points">
              <mxPoint x="280" y="330" />
              <mxPoint x="280" y="220" />
            </Array>
          </mxGeometry>
        </mxCell>
        <mxCell id="mHaAWTCKIyT-Cmkm_INJ-10" value="НЕТ" style="edgeLabel;html=1;align=center;verticalAlign=middle;resizable=0;points=[];" vertex="1" connectable="0" parent="mHaAWTCKIyT-Cmkm_INJ-8">
          <mxGeometry x="-0.0193" y="-1" relative="1" as="geometry">
            <mxPoint as="offset" />
          </mxGeometry>
        </mxCell>
        <mxCell id="mHaAWTCKIyT-Cmkm_INJ-1" value="if array[i].length &amp;lt;= 3" style="rhombus;whiteSpace=wrap;html=1;" vertex="1" parent="1">
          <mxGeometry x="320" y="290" width="160" height="80" as="geometry" />
        </mxCell>
        <mxCell id="mHaAWTCKIyT-Cmkm_INJ-6" style="edgeStyle=orthogonalEdgeStyle;rounded=0;orthogonalLoop=1;jettySize=auto;html=1;exitX=0.5;exitY=1;exitDx=0;exitDy=0;entryX=0.5;entryY=0;entryDx=0;entryDy=0;" edge="1" parent="1" source="mHaAWTCKIyT-Cmkm_INJ-2" target="mHaAWTCKIyT-Cmkm_INJ-1">
          <mxGeometry relative="1" as="geometry" />
        </mxCell>
        <mxCell id="mHaAWTCKIyT-Cmkm_INJ-2" value="for i=0, i&amp;lt;array.length, i++" style="shape=hexagon;perimeter=hexagonPerimeter2;whiteSpace=wrap;html=1;fixedSize=1;" vertex="1" parent="1">
          <mxGeometry x="320" y="180" width="160" height="80" as="geometry" />
        </mxCell>
        <mxCell id="mHaAWTCKIyT-Cmkm_INJ-3" value="Console.WriteLine(array[i])" style="shape=document;whiteSpace=wrap;html=1;boundedLbl=1;" vertex="1" parent="1">
          <mxGeometry x="320" y="400" width="160" height="80" as="geometry" />
        </mxCell>
        <mxCell id="mHaAWTCKIyT-Cmkm_INJ-4" value="" style="endArrow=classic;html=1;rounded=0;exitX=0.5;exitY=1;exitDx=0;exitDy=0;entryX=0.5;entryY=0;entryDx=0;entryDy=0;" edge="1" parent="1" source="RczpkamzrUJYiYEXYmhn-2" target="mHaAWTCKIyT-Cmkm_INJ-2">
          <mxGeometry width="50" height="50" relative="1" as="geometry">
            <mxPoint x="390" y="340" as="sourcePoint" />
            <mxPoint x="440" y="290" as="targetPoint" />
          </mxGeometry>
        </mxCell>
      </root>
    </mxGraphModel>
  </diagram>
</mxfile>
